<svg width="35" height="34" viewBox="0 0 35 34" fill="none" xmlns="http://www.w3.org/2000/svg">
<path d="M17.4001 0.224609C8.1216 0.224609 0.600098 7.74611 0.600098 17.0246C0.600098 26.3031 8.1216 33.8246 17.4001 33.8246C26.6786 33.8246 34.2001 26.3031 34.2001 17.0246C34.2001 7.74611 26.6786 0.224609 17.4001 0.224609ZM24.2339 13.9866C24.2409 14.1301 24.2426 14.2736 24.2426 14.4136C24.2426 18.7886 20.9159 23.8304 14.8294 23.8304C13.0309 23.8334 11.2698 23.3168 9.75785 22.3429C10.0151 22.3744 10.2793 22.3866 10.5471 22.3866C12.0976 22.3866 13.5239 21.8599 14.6561 20.9709C13.9661 20.9573 13.2975 20.7288 12.7435 20.3173C12.1896 19.9057 11.7778 19.3316 11.5656 18.6749C12.0611 18.7691 12.5716 18.7493 13.0583 18.6171C12.3094 18.4657 11.6359 18.0599 11.1521 17.4685C10.6682 16.8772 10.4038 16.1367 10.4036 15.3726V15.3324C10.8498 15.5791 11.3608 15.7296 11.9033 15.7471C11.2012 15.2797 10.7042 14.5618 10.5139 13.7401C10.3236 12.9184 10.4544 12.0551 10.8796 11.3266C11.7108 12.3486 12.7473 13.1847 13.9221 13.7807C15.0969 14.3766 16.3837 14.7193 17.6994 14.7864C17.5321 14.0764 17.6041 13.3311 17.9041 12.6662C18.2042 12.0014 18.7154 11.4543 19.3585 11.1101C20.0015 10.7658 20.7403 10.6436 21.4599 10.7625C22.1796 10.8814 22.8397 11.2348 23.3379 11.7676C24.0784 11.6211 24.7886 11.3495 25.4379 10.9644C25.191 11.7311 24.6743 12.3822 23.9836 12.7966C24.6396 12.7176 25.2801 12.5412 25.8841 12.2734C25.4405 12.9382 24.8816 13.5184 24.2339 13.9866Z" fill="#FFBA33"/>
</svg>
